<?xml version="1.0" encoding="iso-8859-1"?>
<!-- Generator: Adobe Illustrator 18.0.0, SVG Export Plug-In . SVG Version: 6.00 Build 0)  -->
<!DOCTYPE svg PUBLIC "-//W3C//DTD SVG 1.1//EN" "http://www.w3.org/Graphics/SVG/1.1/DTD/svg11.dtd">
<svg version="1.1" id="Capa_1" xmlns="http://www.w3.org/2000/svg" xmlns:xlink="http://www.w3.org/1999/xlink" x="0px" y="0px"
	 viewBox="0 0 368.102 368.102" style="enable-background:new 0 0 368.102 368.102;" xml:space="preserve">
<g>
	<path d="M202.119,294.685c0-0.855,0.061-1.696,0.176-2.521H27.973V95.672h260.174v63.591c2.816-1.977,6.159-3.054,9.672-3.054
		c1.043,0,2.072,0.094,3.077,0.277c3.052-4.416,8.149-7.314,13.911-7.314h1.313V19.461c0-5.15-4.174-9.324-9.324-9.324H9.324
		C4.174,10.137,0,14.311,0,19.461v291.352c0,5.15,4.174,9.324,9.324,9.324h195.733c-1.855-2.85-2.938-6.245-2.938-9.892V294.685z
		 M270.342,41.853c7.336,0,13.285,5.948,13.285,13.284c0,7.337-5.949,13.284-13.285,13.284c-7.336,0-13.283-5.947-13.283-13.284
		C257.059,47.801,263.006,41.853,270.342,41.853z M228.676,41.853c7.336,0,13.285,5.948,13.285,13.284
		c0,7.337-5.949,13.284-13.285,13.284c-7.336,0-13.283-5.947-13.283-13.284C215.393,47.801,221.34,41.853,228.676,41.853z"/>
	<path d="M232.163,231.694c4.035-4.033,4.035-10.574,0-14.608l-1.896-1.895c0.916-1.918,1.733-3.889,2.448-5.911h2.682
		c5.705,0,10.33-4.623,10.33-10.33v-19.626c0-5.706-4.625-10.329-10.33-10.329h-2.682c-0.715-2.023-1.532-3.994-2.448-5.911
		l1.896-1.895c4.035-4.033,4.035-10.575,0-14.608l-13.879-13.879c-4.034-4.035-10.574-4.035-14.606,0l-1.897,1.896
		c-1.916-0.916-3.887-1.732-5.911-2.447v-2.682c0-5.706-4.622-10.33-10.329-10.33h-19.625c-5.707,0-10.33,4.624-10.33,10.33v2.682
		c-2.024,0.715-3.994,1.531-5.91,2.447l-1.896-1.896c-4.033-4.035-10.575-4.035-14.607,0L119.29,146.58
		c-4.033,4.033-4.033,10.575,0,14.608l1.896,1.895c-0.916,1.917-1.732,3.888-2.446,5.911h-2.682c-5.706,0-10.33,4.623-10.33,10.329
		v19.626c0,5.707,4.624,10.33,10.33,10.33h2.682c0.714,2.023,1.53,3.993,2.446,5.911l-1.896,1.895
		c-4.033,4.034-4.035,10.575,0,14.608l13.881,13.88c4.032,4.034,10.574,4.034,14.607-0.001l1.895-1.895
		c1.918,0.916,3.889,1.733,5.912,2.447v2.682c0,5.706,4.623,10.331,10.33,10.331h19.625c5.707,0,10.329-4.625,10.329-10.331v-2.682
		c2.024-0.714,3.995-1.531,5.911-2.447l1.897,1.895c4.032,4.035,10.572,4.035,14.606,0.001L232.163,231.694z M175.728,222.845
		c-18.617,0-33.708-15.091-33.708-33.708c0-18.618,15.091-33.708,33.708-33.708c18.617,0,33.707,15.09,33.707,33.708
		C209.435,207.754,194.345,222.845,175.728,222.845z"/>
	<path d="M314.93,286.494h-2.127c-0.566-1.604-1.213-3.167-1.939-4.687l1.502-1.503c3.199-3.197,3.199-8.384,0-11.582
		l-11.004-11.004c-1.043-1.044-2.3-1.741-3.629-2.104c-1.369-0.393-5.093-0.757-7.953,2.104l-1.504,1.503
		c-1.52-0.727-3.082-1.374-4.685-1.94v-2.126c0-4.524-3.666-8.19-8.19-8.19h-15.56c-4.525,0-8.191,3.666-8.191,8.19v2.126
		c-1.604,0.566-3.166,1.214-4.686,1.94l-1.504-1.503c-1.599-1.6-3.694-2.399-5.79-2.399c-2.096,0-4.191,0.8-5.79,2.399
		l-11.006,11.004c-3.197,3.198-3.197,8.385,0,11.582l1.504,1.503c-0.727,1.52-1.375,3.083-1.941,4.687h-2.125
		c-4.523,0-8.191,3.666-8.191,8.19v15.56c0,4.525,3.668,8.19,8.191,8.19h2.125c0.566,1.604,1.215,3.167,1.941,4.686l-1.504,1.503
		c-3.197,3.198-3.199,8.385,0,11.582l11.006,11.005c1.599,1.599,3.694,2.398,5.789,2.398c2.097,0,4.192-0.8,5.791-2.399l1.504-1.503
		c1.52,0.727,3.082,1.374,4.686,1.94v2.127c0,4.523,3.666,8.19,8.191,8.19h15.56c4.523,0,8.19-3.667,8.19-8.19v-2.127
		c1.603-0.566,3.166-1.214,4.688-1.94l1.502,1.503c1.599,1.6,3.695,2.399,5.791,2.399c2.096,0,4.192-0.799,5.791-2.398
		l11.004-11.005c3.199-3.197,3.199-8.384,0-11.582l-1.502-1.503c0.727-1.52,1.373-3.082,1.939-4.686h2.127
		c4.523,0,8.19-3.665,8.19-8.19v-15.56C323.119,290.16,319.453,286.494,314.93,286.494z M267.619,329.19
		c-14.76,0-26.725-11.965-26.725-26.725c0-14.762,11.965-26.726,26.725-26.726c14.762,0,26.727,11.964,26.727,26.726
		C294.346,317.226,282.381,329.19,267.619,329.19z"/>
	<path d="M361.203,192.464h-1.791c-0.477-1.351-1.022-2.667-1.635-3.946l1.266-1.267c2.695-2.692,2.695-7.061,0-9.754l-9.268-9.268
		c-1.347-1.347-3.111-2.021-4.877-2.021c-1.766,0-3.53,0.673-4.877,2.021l-1.266,1.266c-1.279-0.611-2.596-1.157-3.947-1.634v-1.791
		c0-3.811-3.086-6.898-6.896-6.898h-13.105c-3.811,0-6.898,3.088-6.898,6.898v1.791c-1.35,0.477-2.666,1.023-3.945,1.634
		l-1.268-1.266c-1.347-1.347-3.111-2.021-4.877-2.021c-1.766,0-3.53,0.673-4.877,2.021l-9.268,9.268
		c-2.693,2.693-2.693,7.061,0,9.754l1.266,1.267c-0.611,1.279-1.156,2.596-1.635,3.946h-1.789c-3.81,0-6.898,3.087-6.898,6.897
		v13.105c0,3.811,3.088,6.898,6.898,6.898h1.789c0.479,1.351,1.023,2.667,1.635,3.947l-1.266,1.265
		c-2.693,2.694-2.695,7.061,0,9.755l9.268,9.268c1.347,1.347,3.111,2.02,4.877,2.02c1.764,0,3.53-0.674,4.877-2.021l1.266-1.266
		c1.281,0.612,2.598,1.157,3.947,1.634v1.791c0,3.811,3.088,6.898,6.898,6.898h13.105c3.811,0,6.896-3.088,6.896-6.898v-1.791
		c1.352-0.477,2.668-1.021,3.947-1.634l1.266,1.266c1.347,1.347,3.112,2.021,4.877,2.021c1.766,0,3.53-0.673,4.877-2.02l9.268-9.268
		c2.695-2.693,2.695-7.061,0-9.755l-1.266-1.265c0.613-1.28,1.158-2.597,1.635-3.947h1.791c3.809,0,6.898-3.087,6.898-6.898v-13.105
		C368.102,195.551,365.012,192.464,361.203,192.464z M321.359,228.422c-12.432,0-22.508-10.076-22.508-22.508
		c0-12.432,10.076-22.508,22.508-22.508c12.432,0,22.508,10.076,22.508,22.508C343.867,218.346,333.791,228.422,321.359,228.422z"/>
</g>
<g>
</g>
<g>
</g>
<g>
</g>
<g>
</g>
<g>
</g>
<g>
</g>
<g>
</g>
<g>
</g>
<g>
</g>
<g>
</g>
<g>
</g>
<g>
</g>
<g>
</g>
<g>
</g>
<g>
</g>
</svg>
